<svg width="29" height="29" viewBox="0 0 29 29" fill="none" xmlns="http://www.w3.org/2000/svg">
<rect width="29" height="29" rx="3" fill="#636380" fill-opacity="0.1"/>
<rect x="1.5" y="1.5" width="26" height="26" rx="1.5" stroke="#F0F0FF" stroke-opacity="0.1" stroke-width="3"/>
<path fill-rule="evenodd" clip-rule="evenodd" d="M24.0536 8.27307C24.5764 7.49061 24.3658 6.43254 23.5834 5.90981C22.8009 5.38708 21.7428 5.59763 21.2201 6.3801L12.5892 19.2995L7.45536 15.2136C6.71908 14.6277 5.64716 14.7495 5.06118 15.4858C4.47519 16.2221 4.59703 17.294 5.33332 17.88L11.7325 22.9729C11.7711 23.0036 11.8106 23.0324 11.8509 23.0592C11.9077 23.1092 11.9684 23.1561 12.033 23.1992C12.8155 23.722 13.8736 23.5114 14.3963 22.729L24.0536 8.27307Z" fill="#E4DC00"/>
</svg>
