<svg width="105" height="96" viewBox="0 0 105 96" fill="none" xmlns="http://www.w3.org/2000/svg">
<path fill-rule="evenodd" clip-rule="evenodd" d="M103.655 11.7101C104.576 10.3324 104.205 8.46945 102.827 7.54907L93.5408 1.34512C92.1631 0.424738 90.3001 0.795469 89.3797 2.17317L42.7949 71.9055L12.5612 47.8433C11.2648 46.8115 9.37746 47.026 8.34571 48.3224L1.39106 57.0609C0.359307 58.3573 0.573839 60.2447 1.87023 61.2764L34.2085 87.0136C34.4215 87.5806 34.8076 88.0886 35.3497 88.4508L39.4877 91.2152L42.848 93.8896C43.3261 94.2701 43.8845 94.4811 44.4508 94.5308L44.6362 94.6547C46.0139 95.5751 47.8768 95.2044 48.7972 93.8266L103.655 11.7101Z" fill="#E4DC00"/>
</svg>
